<svg xmlns="http://www.w3.org/2000/svg" width="780" height="1600" viewBox="0 0 780 1600" role="img"><title>Old ordering page</title><defs><linearGradient id="g" x1="0" y1="0" x2="1" y2="1"><stop offset="0" stop-color="#60a5fa"/><stop offset="1" stop-color="#1d4ed8"/></linearGradient><radialGradient id="rg" cx="1" cy="0" r="1"><stop offset="0" stop-color="#60a5fa"/><stop offset="0.6" stop-color="#60a5fa" stop-opacity="0"/></radialGradient></defs><rect x="0" y="0" width="780" height="1600" rx="0" fill="#f4f4f5"/><rect x="60" y="40" width="660" height="1520" rx="90" fill="#0a0a0c"/><rect x="80" y="60" width="620" height="1480" rx="74" fill="#ffffff"/><rect x="310" y="80" width="160" height="36" rx="18" fill="#0a0a0c"/><rect x="80" y="60" width="620" height="1480" rx="74" fill="#f3f4f6"/><rect x="110" y="170" width="560" height="90" rx="0" fill="#9ca3af"/><text x="130" y="228" font-family="Times New Roman, serif" font-size="36" fill="#111827">FoodGo Restaurants</text><rect x="110" y="300" width="520" height="12" rx="0" fill="#9ca3af"/><rect x="110" y="334" width="410" height="12" rx="0" fill="#9ca3af"/><rect x="110" y="368" width="300" height="12" rx="0" fill="#9ca3af"/><rect x="110" y="402" width="520" height="12" rx="0" fill="#9ca3af"/><rect x="110" y="436" width="410" height="12" rx="0" fill="#9ca3af"/><rect x="110" y="470" width="300" height="12" rx="0" fill="#9ca3af"/><rect x="110" y="504" width="520" height="12" rx="0" fill="#9ca3af"/><rect x="110" y="538" width="410" height="12" rx="0" fill="#9ca3af"/><rect x="110" y="572" width="300" height="12" rx="0" fill="#9ca3af"/><rect x="110" y="606" width="520" height="12" rx="0" fill="#9ca3af"/><text x="110" y="700" font-family="Times New Roman, serif" font-size="30" fill="#1e3a8a" text-decoration="underline">Download menu (PDF)</text><text x="110" y="770" font-family="Times New Roman, serif" font-size="30" fill="#1e3a8a" text-decoration="underline">Phone to order: 020 0000 0000</text><rect x="110" y="830" width="560" height="420" rx="0" fill="#d1d5db"/><text x="390" y="1050" font-family="Times New Roman, serif" font-size="26" fill="#4b5563" text-anchor="middle">Order on other apps</text><text x="756" y="1578" font-family="Geist, Inter, Arial, sans-serif" font-size="18" font-weight="500" fill="#a1a1aa" text-anchor="end">Placeholder image</text></svg>
