<svg xmlns="http://www.w3.org/2000/svg" width="1600" height="1000" viewBox="0 0 1600 1000" role="img"><title>Kitchen dashboard</title><defs><linearGradient id="g" x1="0" y1="0" x2="1" y2="1"><stop offset="0" stop-color="#60a5fa"/><stop offset="1" stop-color="#1d4ed8"/></linearGradient><radialGradient id="rg" cx="1" cy="0" r="1"><stop offset="0" stop-color="#60a5fa"/><stop offset="0.6" stop-color="#60a5fa" stop-opacity="0"/></radialGradient></defs><rect x="0" y="0" width="1600" height="1000" rx="0" fill="#f4f4f5"/><rect x="40" y="40" width="1520" height="920" rx="18" fill="#ffffff" stroke="#e4e4e7" stroke-width="2"/><rect x="40" y="40" width="1520" height="56" rx="18" fill="#fafafa"/><rect x="40" y="78" width="1520" height="18" rx="0" fill="#fafafa"/><line x1="40" y1="96" x2="1560" y2="96" stroke="#e4e4e7" stroke-width="2"/><circle cx="76" cy="68" r="8" fill="#f87171"/><circle cx="102" cy="68" r="8" fill="#fbbf24"/><circle cx="128" cy="68" r="8" fill="#4ade80"/><rect x="560" y="54" width="480" height="28" rx="14" fill="#f4f4f5"/><text x="800" y="75" font-family="Geist, Inter, Arial, sans-serif" font-size="16" font-weight="500" fill="#71717a" text-anchor="middle">kitchen.foodgo.example</text><rect x="80" y="130" width="360" height="30" rx="8" fill="#18181b"/><text x="80" y="210" font-family="Geist, Inter, Arial, sans-serif" font-size="22" font-weight="500" fill="#71717a" text-anchor="start">New</text><rect x="80" y="234" width="340" height="150" rx="14" fill="#ffffff" stroke="#e4e4e7" stroke-width="2"/><rect x="100" y="254" width="140" height="16" rx="5" fill="#18181b"/><rect x="100" y="286" width="260" height="10" rx="5" fill="#d4d4d8"/><rect x="100" y="306" width="200" height="10" rx="5" fill="#d4d4d8"/><rect x="100" y="336" width="90" height="26" rx="13" fill="#1d4ed8"/><rect x="80" y="404" width="340" height="150" rx="14" fill="#ffffff" stroke="#e4e4e7" stroke-width="2"/><rect x="100" y="424" width="140" height="16" rx="5" fill="#18181b"/><rect x="100" y="456" width="260" height="10" rx="5" fill="#d4d4d8"/><rect x="100" y="476" width="200" height="10" rx="5" fill="#d4d4d8"/><rect x="100" y="506" width="90" height="26" rx="13" fill="#1d4ed8"/><rect x="80" y="574" width="340" height="150" rx="14" fill="#ffffff" stroke="#e4e4e7" stroke-width="2"/><rect x="100" y="594" width="140" height="16" rx="5" fill="#18181b"/><rect x="100" y="626" width="260" height="10" rx="5" fill="#d4d4d8"/><rect x="100" y="646" width="200" height="10" rx="5" fill="#d4d4d8"/><rect x="100" y="676" width="90" height="26" rx="13" fill="#1d4ed8"/><rect x="80" y="744" width="340" height="150" rx="14" fill="#ffffff" stroke="#e4e4e7" stroke-width="2"/><rect x="100" y="764" width="140" height="16" rx="5" fill="#18181b"/><rect x="100" y="796" width="260" height="10" rx="5" fill="#d4d4d8"/><rect x="100" y="816" width="200" height="10" rx="5" fill="#d4d4d8"/><rect x="100" y="846" width="90" height="26" rx="13" fill="#1d4ed8"/><text x="450" y="210" font-family="Geist, Inter, Arial, sans-serif" font-size="22" font-weight="500" fill="#71717a" text-anchor="start">Cooking</text><rect x="450" y="234" width="340" height="150" rx="14" fill="#ffffff" stroke="#e4e4e7" stroke-width="2"/><rect x="470" y="254" width="140" height="16" rx="5" fill="#18181b"/><rect x="470" y="286" width="260" height="10" rx="5" fill="#d4d4d8"/><rect x="470" y="306" width="200" height="10" rx="5" fill="#d4d4d8"/><rect x="470" y="336" width="90" height="26" rx="13" fill="#1d4ed8"/><rect x="450" y="404" width="340" height="150" rx="14" fill="#ffffff" stroke="#e4e4e7" stroke-width="2"/><rect x="470" y="424" width="140" height="16" rx="5" fill="#18181b"/><rect x="470" y="456" width="260" height="10" rx="5" fill="#d4d4d8"/><rect x="470" y="476" width="200" height="10" rx="5" fill="#d4d4d8"/><rect x="470" y="506" width="90" height="26" rx="13" fill="#1d4ed8"/><rect x="450" y="574" width="340" height="150" rx="14" fill="#ffffff" stroke="#e4e4e7" stroke-width="2"/><rect x="470" y="594" width="140" height="16" rx="5" fill="#18181b"/><rect x="470" y="626" width="260" height="10" rx="5" fill="#d4d4d8"/><rect x="470" y="646" width="200" height="10" rx="5" fill="#d4d4d8"/><rect x="470" y="676" width="90" height="26" rx="13" fill="#1d4ed8"/><text x="820" y="210" font-family="Geist, Inter, Arial, sans-serif" font-size="22" font-weight="500" fill="#71717a" text-anchor="start">Ready</text><rect x="820" y="234" width="340" height="150" rx="14" fill="#ffffff" stroke="#e4e4e7" stroke-width="2"/><rect x="840" y="254" width="140" height="16" rx="5" fill="#18181b"/><rect x="840" y="286" width="260" height="10" rx="5" fill="#d4d4d8"/><rect x="840" y="306" width="200" height="10" rx="5" fill="#d4d4d8"/><rect x="840" y="336" width="90" height="26" rx="13" fill="#4ade80"/><rect x="820" y="404" width="340" height="150" rx="14" fill="#ffffff" stroke="#e4e4e7" stroke-width="2"/><rect x="840" y="424" width="140" height="16" rx="5" fill="#18181b"/><rect x="840" y="456" width="260" height="10" rx="5" fill="#d4d4d8"/><rect x="840" y="476" width="200" height="10" rx="5" fill="#d4d4d8"/><rect x="840" y="506" width="90" height="26" rx="13" fill="#4ade80"/><rect x="820" y="574" width="340" height="150" rx="14" fill="#ffffff" stroke="#e4e4e7" stroke-width="2"/><rect x="840" y="594" width="140" height="16" rx="5" fill="#18181b"/><rect x="840" y="626" width="260" height="10" rx="5" fill="#d4d4d8"/><rect x="840" y="646" width="200" height="10" rx="5" fill="#d4d4d8"/><rect x="840" y="676" width="90" height="26" rx="13" fill="#4ade80"/><rect x="820" y="744" width="340" height="150" rx="14" fill="#ffffff" stroke="#e4e4e7" stroke-width="2"/><rect x="840" y="764" width="140" height="16" rx="5" fill="#18181b"/><rect x="840" y="796" width="260" height="10" rx="5" fill="#d4d4d8"/><rect x="840" y="816" width="200" height="10" rx="5" fill="#d4d4d8"/><rect x="840" y="846" width="90" height="26" rx="13" fill="#4ade80"/><text x="1190" y="210" font-family="Geist, Inter, Arial, sans-serif" font-size="22" font-weight="500" fill="#71717a" text-anchor="start">Out</text><rect x="1190" y="234" width="340" height="150" rx="14" fill="#ffffff" stroke="#e4e4e7" stroke-width="2"/><rect x="1210" y="254" width="140" height="16" rx="5" fill="#18181b"/><rect x="1210" y="286" width="260" height="10" rx="5" fill="#d4d4d8"/><rect x="1210" y="306" width="200" height="10" rx="5" fill="#d4d4d8"/><rect x="1210" y="336" width="90" height="26" rx="13" fill="#1d4ed8"/><rect x="1190" y="404" width="340" height="150" rx="14" fill="#ffffff" stroke="#e4e4e7" stroke-width="2"/><rect x="1210" y="424" width="140" height="16" rx="5" fill="#18181b"/><rect x="1210" y="456" width="260" height="10" rx="5" fill="#d4d4d8"/><rect x="1210" y="476" width="200" height="10" rx="5" fill="#d4d4d8"/><rect x="1210" y="506" width="90" height="26" rx="13" fill="#1d4ed8"/><rect x="1190" y="574" width="340" height="150" rx="14" fill="#ffffff" stroke="#e4e4e7" stroke-width="2"/><rect x="1210" y="594" width="140" height="16" rx="5" fill="#18181b"/><rect x="1210" y="626" width="260" height="10" rx="5" fill="#d4d4d8"/><rect x="1210" y="646" width="200" height="10" rx="5" fill="#d4d4d8"/><rect x="1210" y="676" width="90" height="26" rx="13" fill="#1d4ed8"/><text x="1576" y="978" font-family="Geist, Inter, Arial, sans-serif" font-size="18" font-weight="500" fill="#a1a1aa" text-anchor="end">Placeholder image</text></svg>
