<svg xmlns="http://www.w3.org/2000/svg" width="1600" height="1000" viewBox="0 0 1600 1000" role="img"><title>Staff calendar</title><defs><linearGradient id="g" x1="0" y1="0" x2="1" y2="1"><stop offset="0" stop-color="#34d399"/><stop offset="1" stop-color="#047857"/></linearGradient><radialGradient id="rg" cx="1" cy="0" r="1"><stop offset="0" stop-color="#34d399"/><stop offset="0.6" stop-color="#34d399" stop-opacity="0"/></radialGradient></defs><rect x="0" y="0" width="1600" height="1000" rx="0" fill="#f4f4f5"/><rect x="40" y="40" width="1520" height="920" rx="18" fill="#ffffff" stroke="#e4e4e7" stroke-width="2"/><rect x="40" y="40" width="1520" height="56" rx="18" fill="#fafafa"/><rect x="40" y="78" width="1520" height="18" rx="0" fill="#fafafa"/><line x1="40" y1="96" x2="1560" y2="96" stroke="#e4e4e7" stroke-width="2"/><circle cx="76" cy="68" r="8" fill="#f87171"/><circle cx="102" cy="68" r="8" fill="#fbbf24"/><circle cx="128" cy="68" r="8" fill="#4ade80"/><rect x="560" y="54" width="480" height="28" rx="14" fill="#f4f4f5"/><text x="800" y="75" font-family="Geist, Inter, Arial, sans-serif" font-size="16" font-weight="500" fill="#71717a" text-anchor="middle">staff.meridian.example</text><rect x="40" y="96" width="260" height="864" rx="0" fill="#fafafa"/><line x1="300" y1="96" x2="300" y2="960" stroke="#e4e4e7" stroke-width="2"/><rect x="72" y="128" width="36" height="36" rx="10" fill="#047857"/><rect x="120" y="138" width="110" height="16" rx="5" fill="#18181b"/><rect x="72" y="200" width="196" height="30" rx="8" fill="#e4e4e7"/><rect x="72" y="252" width="150" height="30" rx="8" fill="#f4f4f5"/><rect x="72" y="304" width="150" height="30" rx="8" fill="#f4f4f5"/><rect x="72" y="356" width="150" height="30" rx="8" fill="#f4f4f5"/><rect x="72" y="408" width="150" height="30" rx="8" fill="#f4f4f5"/><rect x="340" y="130" width="300" height="30" rx="8" fill="#18181b"/><text x="420" y="210" font-family="Geist, Inter, Arial, sans-serif" font-size="20" font-weight="500" fill="#71717a" text-anchor="middle">Room 1</text><rect x="340" y="230" width="260" height="110" rx="12" fill="#047857" opacity="0.9"/><rect x="340" y="510" width="260" height="110" rx="12" fill="#047857" opacity="0.9"/><rect x="340" y="650" width="260" height="110" rx="12" fill="#34d399" opacity="0.35"/><text x="710" y="210" font-family="Geist, Inter, Arial, sans-serif" font-size="20" font-weight="500" fill="#71717a" text-anchor="middle">Room 2</text><rect x="630" y="400" width="260" height="110" rx="12" fill="#34d399" opacity="0.35"/><rect x="630" y="540" width="260" height="110" rx="12" fill="#047857" opacity="0.9"/><rect x="630" y="820" width="260" height="110" rx="12" fill="#047857" opacity="0.9"/><text x="1000" y="210" font-family="Geist, Inter, Arial, sans-serif" font-size="20" font-weight="500" fill="#71717a" text-anchor="middle">Room 3</text><rect x="920" y="230" width="260" height="110" rx="12" fill="#047857" opacity="0.9"/><rect x="920" y="370" width="260" height="110" rx="12" fill="#34d399" opacity="0.35"/><rect x="920" y="650" width="260" height="110" rx="12" fill="#34d399" opacity="0.35"/><rect x="920" y="790" width="260" height="110" rx="12" fill="#047857" opacity="0.9"/><text x="1290" y="210" font-family="Geist, Inter, Arial, sans-serif" font-size="20" font-weight="500" fill="#71717a" text-anchor="middle">Room 4</text><rect x="1210" y="260" width="260" height="110" rx="12" fill="#047857" opacity="0.9"/><rect x="1210" y="540" width="260" height="110" rx="12" fill="#047857" opacity="0.9"/><rect x="1210" y="680" width="260" height="110" rx="12" fill="#34d399" opacity="0.35"/><text x="1576" y="978" font-family="Geist, Inter, Arial, sans-serif" font-size="18" font-weight="500" fill="#a1a1aa" text-anchor="end">Placeholder image</text></svg>
