<svg xmlns="http://www.w3.org/2000/svg" width="1200" height="900" viewBox="0 0 1200 900" role="img"><title>Thumbnail</title><defs><linearGradient id="g" x1="0" y1="0" x2="1" y2="1"><stop offset="0" stop-color="#34d399"/><stop offset="1" stop-color="#047857"/></linearGradient><radialGradient id="rg" cx="1" cy="0" r="1"><stop offset="0" stop-color="#34d399"/><stop offset="0.6" stop-color="#34d399" stop-opacity="0"/></radialGradient></defs><rect x="0" y="0" width="1200" height="900" rx="0" fill="#047857"/><rect x="0" y="0" width="1200" height="900" rx="0" fill="url(#rg)"/><g transform="translate(120 117) scale(0.6)"><rect x="0" y="0" width="1600" height="1000" rx="0" fill="#f4f4f5"/><rect x="40" y="40" width="1520" height="920" rx="18" fill="#ffffff" stroke="#e4e4e7" stroke-width="2"/><rect x="40" y="40" width="1520" height="56" rx="18" fill="#fafafa"/><rect x="40" y="78" width="1520" height="18" rx="0" fill="#fafafa"/><line x1="40" y1="96" x2="1560" y2="96" stroke="#e4e4e7" stroke-width="2"/><circle cx="76" cy="68" r="8" fill="#f87171"/><circle cx="102" cy="68" r="8" fill="#fbbf24"/><circle cx="128" cy="68" r="8" fill="#4ade80"/><rect x="560" y="54" width="480" height="28" rx="14" fill="#f4f4f5"/><rect x="120" y="140" width="520" height="40" rx="8" fill="#18181b"/><rect x="120" y="196" width="380" height="16" rx="6" fill="#a1a1aa"/><rect x="120" y="260" width="560" height="110" rx="14" fill="#ffffff" stroke="#e4e4e7" stroke-width="2"/><circle cx="180" cy="315" r="30" fill="#047857"/><rect x="230" y="294" width="220" height="16" rx="5" fill="#18181b"/><rect x="230" y="322" width="150" height="12" rx="5" fill="#d4d4d8"/><rect x="120" y="390" width="560" height="110" rx="14" fill="#ffffff" stroke="#e4e4e7" stroke-width="2"/><circle cx="180" cy="445" r="30" fill="#34d399"/><rect x="230" y="424" width="220" height="16" rx="5" fill="#18181b"/><rect x="230" y="452" width="150" height="12" rx="5" fill="#d4d4d8"/><rect x="120" y="520" width="560" height="110" rx="14" fill="#ffffff" stroke="#e4e4e7" stroke-width="2"/><circle cx="180" cy="575" r="30" fill="#34d399"/><rect x="230" y="554" width="220" height="16" rx="5" fill="#18181b"/><rect x="230" y="582" width="150" height="12" rx="5" fill="#d4d4d8"/><rect x="740" y="260" width="740" height="620" rx="14" fill="#ffffff" stroke="#e4e4e7" stroke-width="2"/><rect x="780" y="300" width="220" height="20" rx="6" fill="#18181b"/><text x="820" y="370" font-family="Geist, Inter, Arial, sans-serif" font-size="18" font-weight="500" fill="#71717a" text-anchor="middle">Mon</text><rect x="770" y="394" width="100" height="52" rx="10" fill="#047857" stroke="#047857" stroke-width="2"/><rect x="770" y="468" width="100" height="52" rx="10" fill="#ffffff" stroke="#e4e4e7" stroke-width="2"/><rect x="770" y="542" width="100" height="52" rx="10" fill="#ffffff" stroke="#e4e4e7" stroke-width="2"/><rect x="770" y="616" width="100" height="52" rx="10" fill="#ffffff" stroke="#e4e4e7" stroke-width="2"/><rect x="770" y="690" width="100" height="52" rx="10" fill="#f4f4f5" stroke="#e4e4e7" stroke-width="2"/><rect x="770" y="764" width="100" height="52" rx="10" fill="#047857" stroke="#047857" stroke-width="2"/><text x="956" y="370" font-family="Geist, Inter, Arial, sans-serif" font-size="18" font-weight="500" fill="#71717a" text-anchor="middle">Tue</text><rect x="906" y="394" width="100" height="52" rx="10" fill="#ffffff" stroke="#e4e4e7" stroke-width="2"/><rect x="906" y="468" width="100" height="52" rx="10" fill="#047857" stroke="#047857" stroke-width="2"/><rect x="906" y="542" width="100" height="52" rx="10" fill="#ffffff" stroke="#e4e4e7" stroke-width="2"/><rect x="906" y="616" width="100" height="52" rx="10" fill="#f4f4f5" stroke="#e4e4e7" stroke-width="2"/><rect x="906" y="690" width="100" height="52" rx="10" fill="#ffffff" stroke="#e4e4e7" stroke-width="2"/><rect x="906" y="764" width="100" height="52" rx="10" fill="#ffffff" stroke="#e4e4e7" stroke-width="2"/><text x="1092" y="370" font-family="Geist, Inter, Arial, sans-serif" font-size="18" font-weight="500" fill="#71717a" text-anchor="middle">Wed</text><rect x="1042" y="394" width="100" height="52" rx="10" fill="#ffffff" stroke="#e4e4e7" stroke-width="2"/><rect x="1042" y="468" width="100" height="52" rx="10" fill="#ffffff" stroke="#e4e4e7" stroke-width="2"/><rect x="1042" y="542" width="100" height="52" rx="10" fill="#047857" stroke="#047857" stroke-width="2"/><rect x="1042" y="616" width="100" height="52" rx="10" fill="#ffffff" stroke="#e4e4e7" stroke-width="2"/><rect x="1042" y="690" width="100" height="52" rx="10" fill="#ffffff" stroke="#e4e4e7" stroke-width="2"/><rect x="1042" y="764" width="100" height="52" rx="10" fill="#ffffff" stroke="#e4e4e7" stroke-width="2"/><text x="1228" y="370" font-family="Geist, Inter, Arial, sans-serif" font-size="18" font-weight="500" fill="#71717a" text-anchor="middle">Thu</text><rect x="1178" y="394" width="100" height="52" rx="10" fill="#ffffff" stroke="#e4e4e7" stroke-width="2"/><rect x="1178" y="468" width="100" height="52" rx="10" fill="#f4f4f5" stroke="#e4e4e7" stroke-width="2"/><rect x="1178" y="542" width="100" height="52" rx="10" fill="#ffffff" stroke="#e4e4e7" stroke-width="2"/><rect x="1178" y="616" width="100" height="52" rx="10" fill="#047857" stroke="#047857" stroke-width="2"/><rect x="1178" y="690" width="100" height="52" rx="10" fill="#ffffff" stroke="#e4e4e7" stroke-width="2"/><rect x="1178" y="764" width="100" height="52" rx="10" fill="#f4f4f5" stroke="#e4e4e7" stroke-width="2"/><text x="1364" y="370" font-family="Geist, Inter, Arial, sans-serif" font-size="18" font-weight="500" fill="#71717a" text-anchor="middle">Fri</text><rect x="1314" y="394" width="100" height="52" rx="10" fill="#f4f4f5" stroke="#e4e4e7" stroke-width="2"/><rect x="1314" y="468" width="100" height="52" rx="10" fill="#ffffff" stroke="#e4e4e7" stroke-width="2"/><rect x="1314" y="542" width="100" height="52" rx="10" fill="#ffffff" stroke="#e4e4e7" stroke-width="2"/><rect x="1314" y="616" width="100" height="52" rx="10" fill="#ffffff" stroke="#e4e4e7" stroke-width="2"/><rect x="1314" y="690" width="100" height="52" rx="10" fill="#047857" stroke="#047857" stroke-width="2"/><rect x="1314" y="764" width="100" height="52" rx="10" fill="#ffffff" stroke="#e4e4e7" stroke-width="2"/></g><g transform="translate(792 180) scale(0.50625)"><rect x="60" y="40" width="660" height="1520" rx="90" fill="#0a0a0c"/><rect x="80" y="60" width="620" height="1480" rx="74" fill="#ffffff"/><rect x="310" y="80" width="160" height="36" rx="18" fill="#0a0a0c"/><rect x="80" y="140" width="620" height="110" rx="0" fill="#fafafa"/><circle cx="390" cy="190" r="34" fill="#047857"/><rect x="120" y="320" width="480" height="230" rx="30" fill="#e4e4e7"/><rect x="150" y="360" width="400" height="16" rx="6" fill="#71717a"/><rect x="150" y="400" width="310" height="16" rx="6" fill="#71717a"/><rect x="150" y="440" width="400" height="16" rx="6" fill="#71717a"/><rect x="150" y="480" width="310" height="16" rx="6" fill="#71717a"/><rect x="120" y="580" width="420" height="150" rx="30" fill="#e4e4e7"/><rect x="150" y="620" width="200" height="16" rx="6" fill="#047857"/><rect x="150" y="660" width="240" height="16" rx="6" fill="#047857"/><rect x="300" y="780" width="300" height="90" rx="30" fill="#047857"/><rect x="330" y="815" width="200" height="16" rx="6" fill="#ffffff"/><rect x="120" y="900" width="480" height="190" rx="30" fill="#e4e4e7"/><rect x="150" y="940" width="380" height="16" rx="6" fill="#71717a"/><rect x="150" y="980" width="320" height="16" rx="6" fill="#71717a"/><rect x="150" y="1020" width="260" height="16" rx="6" fill="#71717a"/></g><text x="1176" y="878" font-family="Geist, Inter, Arial, sans-serif" font-size="18" font-weight="500" fill="#a1a1aa" text-anchor="end">Placeholder image</text></svg>
